<svg width="213" height="151" viewBox="0 0 213 151" fill="none" xmlns="http://www.w3.org/2000/svg">
<g clip-path="url(#clip0_1498_3631)">
<path d="M211.491 48.6014C208.567 58.7491 200.028 65.8526 191.121 71.8869C189.877 72.7296 188.633 73.553 187.388 74.3569C187.38 74.3606 187.371 74.3685 187.363 74.3723C187.303 74.4107 187.243 74.4493 187.187 74.488C186.93 74.6536 186.673 74.8193 186.419 74.983L186.559 75.0459C186.559 75.0459 186.696 75.119 186.546 75.0576C186.501 75.0389 186.454 75.0221 186.409 75.0033C181.235 72.9158 175.968 70.6745 172.003 66.7639C167.889 62.7031 165.485 56.3338 167.713 50.9991C168.006 50.3003 168.375 49.6363 168.815 49.0196C168.996 48.7609 169.191 48.5134 169.393 48.2705C170.622 46.7705 172.228 45.625 174.046 44.9516C175.864 44.2782 177.829 44.1014 179.738 44.4392C181.647 44.7771 183.431 45.6174 184.908 46.8738C186.385 48.1302 187.5 49.7574 188.14 51.588C188.794 45.4936 183.77 40.3887 178.935 36.622C174.098 32.8572 168.602 28.7573 167.667 22.6968C167.145 19.3248 168.317 16.057 170.453 13.4337C170.519 13.354 170.585 13.2744 170.653 13.1969C173.252 10.1415 176.908 8.17957 180.891 7.70287C188.308 6.93184 195.512 10.8587 200.901 16.0169C209.573 24.316 214.816 37.0635 211.491 48.6014Z" fill="#F2F2F2"/>
<path d="M197.55 35.3289C198.973 37.5441 200.066 39.9551 200.794 42.4858C201.41 44.7477 201.684 47.0889 201.607 49.4319C201.474 54.2477 199.992 58.9537 197.661 63.1451C195.858 66.3233 193.66 69.2607 191.121 71.8875C189.877 72.7302 188.633 73.5536 187.388 74.3575C187.38 74.3612 187.371 74.3691 187.363 74.3729C187.303 74.4113 187.243 74.4499 187.187 74.4886C186.93 74.6542 186.673 74.8199 186.419 74.9836C186.419 74.9836 186.696 75.1196 186.546 75.0582C186.501 75.0395 186.454 75.0227 186.409 75.0038C186.873 71.2006 186.419 67.3416 185.084 63.7501C183.75 60.1587 181.575 56.9394 178.74 54.3622C175.899 51.8242 172.498 49.9938 168.815 49.0202C168.996 48.7615 169.191 48.514 169.393 48.2711C170.816 48.6701 172.2 49.194 173.53 49.8369C178.285 52.1208 182.178 55.8752 184.634 60.5445C186.837 64.7845 187.785 69.5652 187.367 74.3254C187.58 74.1327 187.793 73.9358 187.999 73.7407C191.931 70.0739 195.424 65.865 197.787 61.0075C199.838 56.894 200.846 52.3391 200.722 47.7443C200.529 42.734 198.533 38.0933 195.644 34.0532C192.548 29.7294 188.668 25.904 184.524 22.5901C180.279 19.1896 175.635 16.3215 170.694 14.0495C170.582 13.9975 170.495 13.9047 170.45 13.7901C170.405 13.6756 170.406 13.5482 170.453 13.4343C170.485 13.3321 170.557 13.2469 170.653 13.1975C170.702 13.1763 170.755 13.1665 170.808 13.1688C170.862 13.171 170.914 13.1853 170.961 13.2106C171.571 13.4915 172.177 13.7762 172.778 14.0733C177.783 16.548 182.462 19.635 186.706 23.2635C190.806 26.7598 194.666 30.7543 197.55 35.3289Z" fill="white"/>
<path d="M167.136 8.98535H0.83313V9.65206H167.136V8.98535Z" fill="#3F3D56"/>
<path d="M6.49853 6.63845C7.6029 6.63845 8.49816 5.74296 8.49816 4.63832C8.49816 3.53367 7.6029 2.63818 6.49853 2.63818C5.39417 2.63818 4.4989 3.53367 4.4989 4.63832C4.4989 5.74296 5.39417 6.63845 6.49853 6.63845Z" fill="#3F3D56"/>
<path d="M12.2476 6.63845C13.3519 6.63845 14.2472 5.74296 14.2472 4.63832C14.2472 3.53367 13.3519 2.63818 12.2476 2.63818C11.1432 2.63818 10.2479 3.53367 10.2479 4.63832C10.2479 5.74296 11.1432 6.63845 12.2476 6.63845Z" fill="#3F3D56"/>
<path d="M17.9966 6.63845C19.1009 6.63845 19.9962 5.74296 19.9962 4.63832C19.9962 3.53367 19.1009 2.63818 17.9966 2.63818C16.8922 2.63818 15.9969 3.53367 15.9969 4.63832C15.9969 5.74296 16.8922 6.63845 17.9966 6.63845Z" fill="#3F3D56"/>
<path d="M131.119 47.6767H36.7316C36.4507 47.6767 36.1725 47.6214 35.913 47.5138C35.6534 47.4063 35.4176 47.2487 35.219 47.05C35.0204 46.8513 34.8628 46.6155 34.7553 46.3559C34.6478 46.0963 34.5925 45.8181 34.5925 45.5371C34.5925 45.2561 34.6478 44.9779 34.7553 44.7183C34.8628 44.4587 35.0204 44.2228 35.219 44.0241C35.4176 43.8255 35.6534 43.6679 35.913 43.5603C36.1725 43.4528 36.4507 43.3975 36.7316 43.3975H131.119C131.4 43.3975 131.678 43.4528 131.938 43.5603C132.197 43.6679 132.433 43.8255 132.631 44.0241C132.83 44.2228 132.988 44.4587 133.095 44.7183C133.203 44.9779 133.258 45.2561 133.258 45.5371C133.258 45.8181 133.203 46.0963 133.095 46.3559C132.988 46.6155 132.83 46.8513 132.631 47.05C132.433 47.2487 132.197 47.4063 131.938 47.5138C131.678 47.6214 131.4 47.6767 131.119 47.6767Z" fill="#CCCCCC"/>
<path d="M131.119 70.6772H36.7316C36.4507 70.6772 36.1725 70.6219 35.913 70.5143C35.6534 70.4068 35.4176 70.2492 35.219 70.0505C35.0204 69.8518 34.8628 69.616 34.7553 69.3564C34.6478 69.0968 34.5925 68.8186 34.5925 68.5376C34.5925 68.2566 34.6478 67.9784 34.7553 67.7188C34.8628 67.4592 35.0204 67.2233 35.219 67.0246C35.4176 66.8259 35.6534 66.6683 35.913 66.5608C36.1725 66.4533 36.4507 66.3979 36.7316 66.3979H131.119C131.4 66.3979 131.678 66.4533 131.938 66.5608C132.197 66.6683 132.433 66.8259 132.631 67.0246C132.83 67.2233 132.988 67.4592 133.095 67.7188C133.203 67.9784 133.258 68.2566 133.258 68.5376C133.258 68.8186 133.203 69.0968 133.095 69.3564C132.988 69.616 132.83 69.8518 132.631 70.0505C132.433 70.2492 132.197 70.4068 131.938 70.5143C131.678 70.6219 131.4 70.6772 131.119 70.6772Z" fill="#E6E6E6"/>
<path d="M131.119 79.5034H36.7316C36.1642 79.5034 35.6202 79.278 35.219 78.8767C34.8178 78.4754 34.5925 77.9312 34.5925 77.3637C34.5925 76.7963 34.8178 76.2521 35.219 75.8508C35.6202 75.4495 36.1642 75.2241 36.7316 75.2241H131.119C131.686 75.2241 132.23 75.4495 132.631 75.8508C133.033 76.2521 133.258 76.7963 133.258 77.3637C133.258 77.9312 133.033 78.4754 132.631 78.8767C132.23 79.278 131.686 79.5034 131.119 79.5034Z" fill="#E6E6E6"/>
<path d="M115.744 38.583H52.1065C51.5392 38.583 50.9951 38.3575 50.5939 37.9563C50.1928 37.555 49.9674 37.0108 49.9674 36.4433C49.9674 35.8759 50.1928 35.3317 50.5939 34.9304C50.9951 34.5291 51.5392 34.3037 52.1065 34.3037H115.744C116.312 34.3037 116.856 34.5291 117.257 34.9304C117.658 35.3317 117.883 35.8759 117.883 36.4433C117.883 37.0108 117.658 37.555 117.257 37.9563C116.856 38.3575 116.312 38.583 115.744 38.583Z" fill="#CCCCCC"/>
<path d="M70.0075 61.851H36.8516C36.5705 61.8514 36.2921 61.7963 36.0322 61.6889C35.7724 61.5815 35.5363 61.424 35.3374 61.2253C35.1385 61.0265 34.9807 60.7906 34.873 60.5308C34.7654 60.271 34.71 59.9926 34.71 59.7114C34.71 59.4302 34.7654 59.1518 34.873 58.892C34.9807 58.6323 35.1385 58.3963 35.3374 58.1976C35.5363 57.9988 35.7724 57.8413 36.0322 57.7339C36.2921 57.6265 36.5705 57.5714 36.8516 57.5718H70.0075C70.5748 57.5718 71.1189 57.7972 71.5201 58.1985C71.9212 58.5997 72.1466 59.1439 72.1466 59.7114C72.1466 60.2789 71.9212 60.8231 71.5201 61.2244C71.1189 61.6256 70.5748 61.851 70.0075 61.851Z" fill="#E6E6E6"/>
<path d="M131.239 61.851H98.083C97.8019 61.8514 97.5234 61.7963 97.2636 61.6889C97.0038 61.5815 96.7677 61.424 96.5688 61.2253C96.3699 61.0265 96.2121 60.7906 96.1044 60.5308C95.9968 60.271 95.9413 59.9926 95.9413 59.7114C95.9413 59.4302 95.9968 59.1518 96.1044 58.892C96.2121 58.6323 96.3699 58.3963 96.5688 58.1976C96.7677 57.9988 97.0038 57.8413 97.2636 57.7339C97.5234 57.6265 97.8019 57.5714 98.083 57.5718H131.239C131.52 57.5714 131.798 57.6265 132.058 57.7339C132.318 57.8413 132.554 57.9988 132.753 58.1976C132.952 58.3963 133.11 58.6323 133.217 58.892C133.325 59.1518 133.381 59.4302 133.381 59.7114C133.381 59.9926 133.325 60.271 133.217 60.5308C133.11 60.7906 132.952 61.0265 132.753 61.2253C132.554 61.424 132.318 61.5815 132.058 61.6889C131.798 61.7963 131.52 61.8514 131.239 61.851Z" fill="#E6E6E6"/>
<path d="M165.136 -0.364258H2.83059C2.21224 -0.363317 1.61953 -0.116991 1.18258 0.320642C0.745621 0.758275 0.500136 1.35145 0.5 1.96996V111.979C0.500779 112.597 0.746571 113.189 1.18347 113.626C1.62038 114.063 2.21272 114.309 2.83059 114.31H124.201C124.17 114.089 124.145 113.865 124.121 113.644H2.83059C2.38909 113.644 1.96578 113.468 1.65359 113.156C1.34139 112.844 1.16582 112.42 1.16541 111.979V1.96996C1.1657 1.52802 1.34114 1.10423 1.65327 0.791454C1.9654 0.478678 2.38877 0.302432 2.83059 0.301345H165.136C165.578 0.301807 166.002 0.477754 166.315 0.790579C166.627 1.1034 166.803 1.52756 166.804 1.96996V69.3922C167.025 69.4075 167.249 69.4259 167.469 69.4474V1.96996C167.469 1.35096 167.223 0.75741 166.786 0.319725C166.348 -0.11796 165.755 -0.363973 165.136 -0.364258Z" fill="#3F3D56"/>
<path d="M124.201 114.31C124.17 114.089 124.145 113.865 124.121 113.644C124.115 113.61 124.112 113.58 124.109 113.546C124.02 112.739 123.955 111.924 123.915 111.101C123.747 111.81 123.594 112.522 123.459 113.236C123.468 113.34 123.477 113.442 123.489 113.546C123.492 113.58 123.495 113.61 123.501 113.644C123.526 113.865 123.55 114.089 123.581 114.31C123.667 114.994 123.771 115.669 123.894 116.34C123.897 116.313 123.9 116.288 123.903 116.261C123.989 115.613 124.087 114.969 124.204 114.325C124.201 114.32 124.2 114.315 124.201 114.31ZM167.469 68.8309C167.248 68.8095 167.025 68.7911 166.804 68.7757C166.77 68.7727 166.739 68.7727 166.706 68.7696C165.724 68.696 164.731 68.6592 163.731 68.6592C158.071 68.6609 152.474 69.8496 147.302 72.1484C142.13 74.4473 137.497 77.8052 133.702 82.0056C129.907 86.206 127.035 91.1555 125.271 96.5348C123.506 101.914 122.889 107.604 123.459 113.236C123.468 113.34 123.477 113.442 123.489 113.546C123.492 113.58 123.495 113.61 123.501 113.644C123.526 113.865 123.55 114.089 123.581 114.31C123.667 114.994 123.771 115.669 123.894 116.34C125.112 123 127.974 129.25 132.219 134.523C136.464 139.797 141.958 143.926 148.202 146.538C148.84 146.802 149.484 147.053 150.137 147.283C150.567 147.44 150.996 147.584 151.431 147.722C151.744 147.823 152.06 147.918 152.376 148.01C152.823 148.142 153.277 148.268 153.734 148.384C159.339 149.823 165.188 150.036 170.883 149.01C176.578 147.985 181.985 145.744 186.736 142.44H186.739C192.127 138.719 196.532 133.745 199.575 127.946C202.618 122.148 204.208 115.697 204.209 109.147C204.209 88.0813 188.043 70.7235 167.469 68.8309ZM186.472 141.879C184.599 143.187 182.616 144.332 180.545 145.299C179.057 145.995 177.527 146.598 175.964 147.102C168.909 149.373 161.362 149.635 154.167 147.86C153.627 147.728 153.091 147.584 152.56 147.427C152.035 147.274 151.516 147.111 151.002 146.94C150.582 146.795 150.162 146.648 149.745 146.492C149.309 146.326 148.88 146.154 148.451 145.977C141.993 143.285 136.355 138.945 132.1 133.391C127.845 127.836 125.122 121.262 124.204 114.325C124.201 114.32 124.2 114.315 124.201 114.31C124.17 114.089 124.145 113.865 124.121 113.644C124.115 113.61 124.112 113.58 124.109 113.546C124.02 112.739 123.955 111.924 123.915 111.101C123.882 110.454 123.865 109.803 123.866 109.147C123.878 98.5756 128.082 88.44 135.555 80.9645C143.029 73.489 153.162 69.2842 163.731 69.2726C164.731 69.2726 165.724 69.3094 166.706 69.3831C166.739 69.3861 166.77 69.3892 166.804 69.3923C167.025 69.4076 167.248 69.426 167.469 69.4475C187.705 71.3369 203.596 88.4187 203.596 109.147C203.595 115.581 202.037 121.918 199.055 127.618C196.073 133.318 191.756 138.211 186.472 141.879ZM149.745 146.492C149.309 146.326 148.88 146.154 148.451 145.977C141.993 143.285 136.355 138.945 132.1 133.391C127.845 127.836 125.122 121.262 124.204 114.325C124.087 114.969 123.989 115.613 123.903 116.261C123.9 116.288 123.897 116.313 123.894 116.34C125.112 123 127.974 129.25 132.219 134.523C136.464 139.797 141.958 143.926 148.202 146.538C148.84 146.802 149.484 147.053 150.137 147.283C150.002 147.022 149.87 146.759 149.745 146.492ZM166.706 68.7696C165.724 68.696 164.731 68.6592 163.731 68.6592C158.071 68.6609 152.474 69.8496 147.302 72.1484C142.13 74.4473 137.497 77.8052 133.702 82.0056C129.907 86.206 127.035 91.1555 125.271 96.5348C123.506 101.914 122.889 107.604 123.459 113.236C123.468 113.34 123.477 113.442 123.489 113.546C123.492 113.58 123.495 113.61 123.501 113.644H124.121C124.115 113.61 124.112 113.58 124.108 113.546C124.02 112.739 123.955 111.924 123.915 111.101C123.882 110.454 123.865 109.803 123.866 109.147C123.878 98.5756 128.082 88.44 135.555 80.9645C143.029 73.489 153.162 69.2842 163.731 69.2726C164.731 69.2726 165.724 69.3094 166.706 69.3831C166.739 69.3861 166.77 69.3892 166.804 69.3923V68.7757C166.77 68.7727 166.739 68.7727 166.706 68.7696H166.706Z" fill="#3F3D56"/>
<path d="M196.633 79.0229C209.066 79.2353 209.064 97.7337 196.633 97.9443C184.2 97.7319 184.202 79.2335 196.633 79.0229Z" fill="#003BB3"/>
<path d="M196.634 93.6349C196.457 93.6347 196.288 93.5645 196.164 93.4399C196.039 93.3153 195.969 93.1463 195.969 92.97V89.4448C195.969 89.3662 195.937 89.2909 195.882 89.2353C195.826 89.1798 195.751 89.1485 195.673 89.1484H192.148C191.972 89.1484 191.803 89.0783 191.678 88.9536C191.553 88.8289 191.483 88.6598 191.483 88.4834C191.483 88.3071 191.553 88.1379 191.678 88.0132C191.803 87.8885 191.972 87.8185 192.148 87.8185H195.673C195.751 87.8184 195.826 87.7872 195.882 87.7316C195.937 87.6761 195.969 87.6008 195.969 87.5223V83.9969C195.969 83.8205 196.039 83.6514 196.163 83.5268C196.288 83.4021 196.457 83.332 196.633 83.332C196.81 83.332 196.979 83.4021 197.103 83.5268C197.228 83.6514 197.298 83.8205 197.298 83.9969V87.5223C197.298 87.6008 197.329 87.6761 197.385 87.7316C197.441 87.7872 197.516 87.8184 197.594 87.8185H201.119C201.295 87.8185 201.464 87.8885 201.589 88.0132C201.713 88.1379 201.783 88.3071 201.783 88.4834C201.783 88.6598 201.713 88.8289 201.589 88.9536C201.464 89.0783 201.295 89.1484 201.119 89.1484H197.594C197.516 89.1485 197.44 89.1798 197.385 89.2353C197.329 89.2909 197.298 89.3662 197.298 89.4448V92.97C197.298 93.1462 197.228 93.3152 197.103 93.4399C196.979 93.5645 196.81 93.6346 196.634 93.6349Z" fill="white"/>
<path d="M167.725 122.407C174.362 122.407 179.742 117.027 179.742 110.39C179.742 103.754 174.362 98.3735 167.725 98.3735C161.089 98.3735 155.709 103.754 155.709 110.39C155.709 117.027 161.089 122.407 167.725 122.407Z" fill="#E3C0C5"/>
<path d="M163.92 100.777C163.92 100.777 169.528 102.279 172.432 102.88C175.336 103.481 175.035 101.778 175.035 101.778C175.035 101.778 178.841 102.279 178.64 101.878C178.44 101.478 180.242 99.375 178.14 96.9717C176.037 94.5684 176.638 92.7659 176.638 92.7659H174.835L174.334 92.0649H171.53C171.53 92.0649 168.431 89.3466 162.923 90.1477C157.415 90.9488 150.902 93.0663 150.301 96.3709C150.22 96.8191 150.112 97.3171 149.988 97.843C148.482 104.201 151.682 110.15 155.001 115.779C155.816 117.162 159.762 120.178 159.661 118.109C159.56 116.039 156.109 111.392 158.513 111.091C160.916 110.791 165.021 104.682 163.92 100.777Z" fill="#2F2E41"/>
<path d="M160.908 149.237C158.589 149.052 156.288 148.674 154.031 148.107L154.158 145.711L155.21 126.657L155.219 126.511H176.387L179.709 144.055L180 145.5C179.123 145.841 178.406 146.218 177.5 146.5C177.512 146.133 177.49 146.51 177.481 146.51C176.224 146.899 174.786 147.718 173.5 148C171.79 148.369 170.209 149.026 168.467 149.189C167.121 149.322 165.769 149.387 164.415 149.384C163.246 149.384 162.068 149.335 160.908 149.237Z" fill="#D6D6D6"/>
<path d="M147.3 145.848C146.423 145.468 145.576 145.059 144.738 144.63L144.377 144.445C144.134 144.319 143.881 144.182 143.637 144.046C143.306 143.861 142.984 143.676 142.673 143.491C142.371 143.315 142.059 143.13 141.757 142.945C141.738 142.935 141.728 142.926 141.709 142.926C140.657 142.253 139.624 141.562 138.63 140.812C138.465 140.685 138.299 140.558 138.133 140.432L137.958 137.626L138.211 137.471L155.21 126.658L155.443 126.512L155.463 126.502L157.859 126.512V135.435C159.213 137.393 160.129 141.494 160.694 146.861C160.772 147.631 160.84 148.42 160.908 149.238C158.589 149.052 156.288 148.674 154.031 148.108C153.788 148.059 153.554 148.001 153.31 147.933C151.89 147.561 150.492 147.112 149.122 146.588C148.703 146.432 148.293 146.267 147.884 146.101L147.845 146.082C147.67 146.004 147.475 145.926 147.3 145.848Z" fill="#003BB3"/>
<path d="M143.637 144.045C143.306 143.86 142.984 143.675 142.673 143.49C142.371 143.315 142.059 143.13 141.757 142.945C141.738 142.935 141.728 142.925 141.709 142.925C140.657 142.253 139.624 141.561 138.63 140.811C138.465 140.685 138.299 140.558 138.133 140.431C138.056 140.363 137.978 140.305 137.89 140.237C137.267 139.759 136.663 139.262 136.078 138.736C136.049 138.717 136.029 138.688 136 138.668C136.59 138.214 137.252 137.862 137.958 137.626L138.65 137.831L143.579 139.311L143.608 141.308L143.637 144.045Z" fill="#003BB3"/>
<path d="M184.592 143.5C184.3 143.656 184.008 143.812 183.716 143.958C183.647 143.997 183.589 144.026 183.531 144.055C183.141 144.25 182.761 144.445 182.372 144.63C182.362 144.64 182.342 144.64 182.342 144.649C182.323 144.659 182.294 144.669 182.274 144.679C181.397 145.098 180.511 145.487 179.605 145.848C178.728 146.189 177.842 146.51 176.936 146.793C176.948 146.425 176.936 146.425 176.916 146.802C175.66 147.192 175.203 147.718 173.916 148C173.902 147.2 173.916 146.5 173.878 146.023L173.888 145.887L174.726 132.327L173.605 126.512L176.82 126.034L194 135C194 135 193 137 187 141.5C186.5 142 186 142.5 184.592 143.5Z" fill="#003BB3"/>
</g>
<defs>
<clipPath id="clip0_1498_3631">
<rect width="212" height="150" fill="white" transform="translate(0.5 0.0678711)"/>
</clipPath>
</defs>
</svg>
